<svg width="54" height="52" viewBox="0 0 54 52" fill="none" xmlns="http://www.w3.org/2000/svg">
<path d="M25.8353 21.4069C26.2973 21.139 26.8668 21.1369 27.3308 21.4014L27.5769 20.9698L27.3308 21.4014L50.3181 34.5081C51.3275 35.0836 51.3275 36.5387 50.3181 37.1142L27.3308 50.2209C26.8668 50.4854 26.2973 50.4833 25.8353 50.2154L3.23425 37.1088C2.23758 36.5308 2.23757 35.0916 3.23425 34.5136L25.8353 21.4069Z" stroke="#3E7BFA" stroke-linecap="round" stroke-linejoin="round"/>
<path d="M8.33173 17.1299C8.33173 14.2757 9.85231 11.6378 12.3221 10.2072L22.6157 4.24508C25.0958 2.80859 28.1549 2.80859 30.635 4.24508L40.9286 10.2072C43.3984 11.6378 44.919 14.2757 44.919 17.1299V29.0987C44.919 31.9529 43.3984 34.5909 40.9286 36.0214L30.635 41.9835C28.1549 43.42 25.0958 43.42 22.6157 41.9835L12.3221 36.0214C9.85231 34.5909 8.33173 31.9529 8.33173 29.0987V17.1299Z" fill="#6698FA"/>
<path d="M26.4442 32.0507C26.4442 25.9069 29.9621 20.3057 35.4965 17.6379L39.182 15.8613C41.8379 14.581 44.919 16.5161 44.919 19.4645V29.2896C44.919 32.137 43.4055 34.7698 40.9449 36.2028L32.4572 41.1457C29.7906 42.6986 26.4442 40.775 26.4442 37.6891L26.4442 33.5258L26.4442 32.0507Z" fill="#3E7BFA"/>
<path d="M8.33173 19.1248C8.33173 16.1661 11.4326 14.2314 14.0901 15.532L17.7168 17.3069C23.2043 19.9926 26.6834 25.5687 26.6834 31.6781V40.2354C26.6834 40.2354 26.6992 41.6559 27.0244 42.134C27.303 42.5438 27.5581 42.671 27.8932 42.8569C28.2283 43.0429 28.98 43.2192 28.98 43.2192C27.5522 43.9693 25.8379 43.9276 24.4484 43.1088L12.2703 35.9328C9.82978 34.4947 8.33173 31.8731 8.33173 29.0404V19.1248Z" fill="#3568D4"/>
</svg>
